<svg xmlns="http://www.w3.org/2000/svg" version="1.1" xmlns:xlink="http://www.w3.org/1999/xlink" width="1000" height="1000"><style>
    #light-icon {
      display: inline;
    }
    #dark-icon {
      display: none;
    }

    @media (prefers-color-scheme: dark) {
      #light-icon {
        display: none;
      }
      #dark-icon {
        display: inline;
      }
    }
  </style><g id="light-icon"><svg xmlns="http://www.w3.org/2000/svg" version="1.1" xmlns:xlink="http://www.w3.org/1999/xlink" width="1000" height="1000"><g><g transform="matrix(31.25,0,0,31.25,0,0)"><svg xmlns="http://www.w3.org/2000/svg" version="1.1" xmlns:xlink="http://www.w3.org/1999/xlink" width="32" height="32"><svg xmlns="http://www.w3.org/2000/svg" width="32" height="32" viewBox="0 0 48 48">
                        <g fill="none" stroke="#000" stroke-width="4">
                            <path stroke-linecap="round" d="M44 24C44 12.9543 35.0457 4 24 4C12.9543 4 4 12.9543 4 24C4 35.0457 12.9543 44 24 44C30.9566 44 37.0836 40.4483 40.6667 35.0593"></path>
                            <path stroke-linecap="round" d="M44 24H30"></path>
                            <circle cx="24" cy="24" r="6" fill="#2F88FF"></circle>
                        </g>
                    </svg></svg></g></g></svg></g><g id="dark-icon"><svg xmlns="http://www.w3.org/2000/svg" version="1.1" xmlns:xlink="http://www.w3.org/1999/xlink" width="1000" height="1000"><g clip-path="url(#SvgjsClipPath1095)"><rect width="1000" height="1000" fill="#ffffff"></rect><g transform="matrix(25,0,0,25,100,100)"><svg xmlns="http://www.w3.org/2000/svg" version="1.1" xmlns:xlink="http://www.w3.org/1999/xlink" width="32" height="32"><svg xmlns="http://www.w3.org/2000/svg" width="32" height="32" viewBox="0 0 48 48">
                        <g fill="none" stroke="#000" stroke-width="4">
                            <path stroke-linecap="round" d="M44 24C44 12.9543 35.0457 4 24 4C12.9543 4 4 12.9543 4 24C4 35.0457 12.9543 44 24 44C30.9566 44 37.0836 40.4483 40.6667 35.0593"></path>
                            <path stroke-linecap="round" d="M44 24H30"></path>
                            <circle cx="24" cy="24" r="6" fill="#2F88FF"></circle>
                        </g>
                    </svg></svg></g></g><defs><clipPath id="SvgjsClipPath1095"><rect width="1000" height="1000" x="0" y="0" rx="500" ry="500"></rect></clipPath></defs></svg></g></svg>